<?xml version="1.0" standalone="no"?><!DOCTYPE svg PUBLIC "-//W3C//DTD SVG 1.1//EN" "http://www.w3.org/Graphics/SVG/1.1/DTD/svg11.dtd"><svg t="1739412264816" class="icon" viewBox="0 0 1043 1024" version="1.1" xmlns="http://www.w3.org/2000/svg" p-id="10653" xmlns:xlink="http://www.w3.org/1999/xlink" width="203.7109375" height="200"><path d="M17.311613 834.573053C1.746067 600.391434 15.020433 368.78207 63.582381 139.391488 77.951233 85.910742 130.401374 36.565193 177.63035 31.271629c181.769806-19.245062 363.539611-23.644299 545.313676-13.197709 47.241752 2.878881 94.828458 52.079634 104.125199 107.872855a2353.527609 2353.527609 0 0 1-9.407467 110.721924" fill="#F2C84B" p-id="10654"></path><path d="M603.593976 231.928767c115.265957 1.030605 230.540431 4.522739 345.810646 10.467883 56.104105 3.262164 97.626424 48.791918 88.044351 101.625342-28.963414 155.280696-81.379486 318.388881-142.943244 486.522331-21.157218 57.403009-91.140425 109.414504-154.101036 112.612787-211.090951 10.612679-422.181901 5.17432-633.28137-16.319336-62.973387-6.830954-101.804208-56.304264-83.691959-109.201568 51.964649-152.963963 117.378271-313.240113 183.903414-476.923223 23.54209-56.964363 76.84823-105.381515 118.370548-106.510071 41.888567-1.064675 76.162579-1.567201 76.162579-1.57146" fill="#FFE287" p-id="10655"></path><path d="M779.491036 751.443242m-251.263262 0a251.263262 251.263262 0 1 0 502.526523 0 251.263262 251.263262 0 1 0-502.526523 0Z" fill="#FF6045" p-id="10656"></path><path d="M874.115076 714.341453h-17.477702v-57.411526c0-34.759504-32.57905-62.943576-72.781172-62.943576h-8.734592c-40.202122 0-72.793948 28.184072-72.793948 62.943576v57.411526h-17.464926c-24.117014 0-43.672962 16.915554-43.672962 37.770404v84.339282c0 20.859109 19.555947 37.770405 43.672962 37.770405h189.248082c24.117014 0 43.672962-16.911295 43.672962-37.770405v-84.339282c0.004259-20.854851-19.551689-37.770405-43.668704-37.770404z m-126.653718-51.11291c0-15.301507 14.334782-27.702839 32.029678-27.702839 17.686378 0 32.029678 12.401333 32.029677 27.702839v51.11291h-64.055097v-51.11291z" fill="#FFFFFF" p-id="10657"></path></svg>