<?xml version="1.0" standalone="no"?><!DOCTYPE svg PUBLIC "-//W3C//DTD SVG 1.1//EN" "http://www.w3.org/Graphics/SVG/1.1/DTD/svg11.dtd"><svg t="1739412250843" class="icon" viewBox="0 0 1024 1024" version="1.1" xmlns="http://www.w3.org/2000/svg" p-id="10484" xmlns:xlink="http://www.w3.org/1999/xlink" width="200" height="200"><path d="M1015.316 744.736l-0.02 0.02a3095.664 3095.664 0 0 1-10.528 113.28c-3.998 35.974-33.13 63.954-69.208 66.838-282.354 22.726-564.75 22.726-847.106 0-36.262-2.906-65.252-31.152-69.27-67.292C-6.592 626.058-6.386 394.532 19.76 163.008c3.852-34.078 30.308-61.256 64.242-66.242 129.824-19.12 246.112-19.574 357.764-1.34 33.358 5.44 59.092 32.452 62.882 66.014 0.494 4.348 0.968 8.694 1.442 13.042 4.204 38.53 36.818 67.642 75.574 67.456a5277.76 5277.76 0 0 1 365.862 10.982c38.118 2.472 68.384 32.946 70.712 71.084a3099.228 3099.228 0 0 1-2.922 420.732z" fill="#F1D333" p-id="10485"></path><path d="M1015.296 744.756a3095.664 3095.664 0 0 1-10.528 113.28c-3.998 35.974-33.13 63.954-69.208 66.838-282.354 22.726-564.75 22.726-847.106 0-36.262-2.906-65.252-31.152-69.27-67.292C-6.592 626.058-6.386 394.532 19.76 163.008c3.852-34.078 30.308-61.256 64.242-66.242 0 155.95-35.788 675.516 129.35 711.758 165.12 36.244 672.942 65.17 801.944-63.768z" fill="#EAB14D" p-id="10486"></path><path d="M531.948 745.376a954.24 954.24 0 0 1-69.732-2.576c-66.178-4.87-117.79-58.43-120.054-124.584a4459.618 4459.618 0 0 1-0.012-303.612c2.266-66.16 53.88-119.716 120.062-124.58 23.24-1.708 46.702-2.572 69.734-2.572s46.494 0.866 69.734 2.572c66.182 4.864 117.796 58.422 120.062 124.58a4457.092 4457.092 0 0 1-0.012 303.614c-2.264 66.154-53.876 119.714-120.054 124.584a955.164 955.164 0 0 1-69.728 2.574z m0-472.782c-20.96 0-42.324 0.788-63.494 2.344-22.716 1.67-40.432 19.974-41.206 42.578a4372.588 4372.588 0 0 0 0.012 297.786c0.774 22.604 18.49 40.91 41.206 42.582 21.164 1.558 42.522 2.346 63.482 2.346s42.318-0.79 63.482-2.346c22.718-1.672 40.434-19.978 41.206-42.582 3.386-98.91 3.388-199.1 0.012-297.788-0.774-22.604-18.49-40.908-41.206-42.576a871.15 871.15 0 0 0-63.494-2.344z" fill="#617881" p-id="10487"></path><path d="M595.438 657.884c-13.978 1.028-28.034 1.688-42.012 2.042 7.184 0.182 14.354 0.306 21.47 0.306 20.96 0 42.318-0.79 63.482-2.346 22.718-1.672 40.434-19.978 41.206-42.582 3.386-98.91 3.388-199.1 0.012-297.788-0.774-22.604-18.49-40.908-41.206-42.576a870.024 870.024 0 0 0-63.494-2.344c-7.116 0-14.286 0.124-21.47 0.306 13.98 0.352 28.04 1.012 42.024 2.038 22.718 1.67 40.432 19.974 41.206 42.576a4372.646 4372.646 0 0 1-0.012 297.788c-0.772 22.602-18.488 40.908-41.206 42.58z" fill="#475959" p-id="10488"></path><path d="M505.166 742.8c-66.178-4.87-117.79-58.43-120.054-124.584a4459.618 4459.618 0 0 1-0.012-303.612c2.266-66.16 53.88-119.716 120.062-124.58 16.056-1.18 32.21-1.928 48.264-2.296a941.748 941.748 0 0 0-21.47-0.276c-23.032 0-46.496 0.866-69.734 2.572-66.18 4.864-117.796 58.422-120.062 124.58a4457.032 4457.032 0 0 0 0.012 303.612c2.264 66.154 53.876 119.714 120.054 124.584a954.24 954.24 0 0 0 69.732 2.576c7.12 0 14.288-0.112 21.47-0.276a956.996 956.996 0 0 1-48.262-2.3z" fill="#475959" p-id="10489"></path><path d="M531.948 847.78c-56.35 0-113.176-1.634-169.908-4.878-40.772-2.33-73.374-34.77-75.954-75.528a1905.06 1905.06 0 0 1-0.018-240.588c2.58-40.756 35.182-73.194 75.952-75.522 56.68-3.238 113.582-4.872 169.928-4.872s113.248 1.634 169.928 4.872c40.77 2.328 73.374 34.766 75.952 75.522a1905.434 1905.434 0 0 1-0.018 240.588c-2.58 40.758-35.182 73.198-75.954 75.528a2982.552 2982.552 0 0 1-169.908 4.878z" fill="#80B4FB" p-id="10490"></path><path d="M381.366 843.924c-6.45-0.298-12.9-0.66-19.328-1.022-40.764-2.32-73.374-34.76-75.95-75.524a1906.344 1906.344 0 0 1-0.022-240.598c2.576-40.742 35.186-73.182 75.95-75.524 6.45-0.362 12.878-0.724 19.328-1.022-23.946 14.048-40.466 39.358-42.318 68.754a2024.968 2024.968 0 0 0 0.022 256.18c1.852 29.398 18.37 54.706 42.318 68.756z" fill="#5EA5EC" p-id="10491"></path><path d="M601.38 719.792l-34.068-59.008c22.43-12.978 37.084-37.9 35.212-66.082-2.398-36.064-32.434-64.874-68.564-65.876-39.984-1.11-72.748 30.974-72.748 70.708 0 26.18 14.232 49.02 35.372 61.252l-34.068 59.008c-11.696 20.258 2.924 45.578 26.314 45.578h86.234c23.392 0 38.012-25.322 26.316-45.58z" fill="#475959" p-id="10492"></path></svg>