<?xml version="1.0" standalone="no"?><!DOCTYPE svg PUBLIC "-//W3C//DTD SVG 1.1//EN" "http://www.w3.org/Graphics/SVG/1.1/DTD/svg11.dtd"><svg t="1739412198697" class="icon" viewBox="0 0 1024 1024" version="1.1" xmlns="http://www.w3.org/2000/svg" p-id="8255" xmlns:xlink="http://www.w3.org/1999/xlink" width="200" height="200"><path d="M889.7 197.6H477.3l-82.5-83.5H119.9c-30.4 0-55 24.9-55 55.7v667.9c0 30.8 24.6 55.7 55 55.7h769.8c30.4 0 55-24.9 55-55.7V253.3c0-30.8-24.6-55.7-55-55.7z" fill="#F5A623" p-id="8256"></path><path d="M147.4 420.2h714.8v389.6H147.4zM862.2 336.7H147.4V197.6h213.3l82.4 83.5h419.1z" fill="#F6AF39" p-id="8257" data-spm-anchor-id="a313x.search_index.0.i8.de003a81wWhzDh" class=""></path><path d="M819 767.7m-176 0a176 176 0 1 0 352 0 176 176 0 1 0-352 0Z" fill="#F17033" p-id="8258"></path><path d="M800.8 802.7c-9.2 17.8-28.5 30.1-50.9 30.1-31.2 0-56.6-23.8-56.6-53.2s25.3-53.2 56.6-53.2c17.1 0 32.5 7.2 42.9 18.5l32.3-22.8c-3.9-5.6-6.1-12.2-6.1-19.4 0-19.6 16.9-35.5 37.7-35.5s37.7 15.9 37.7 35.5-16.9 35.5-37.7 35.5c-8.7 0-16.7-2.8-23-7.4l-33.8 23.9c4.2 7.4 6.6 15.9 6.6 24.9 0 4.1-0.5 8.2-1.4 12l33.7 12.7c7.9-11.3 21.4-18.8 36.9-18.8 24.3 0 44 18.5 44 41.4s-19.7 41.4-44 41.4-44-18.5-44-41.4c0-4.1 0.6-8.1 1.8-11.9l-32.7-12.3z" fill="#FFFFFF" p-id="8259" data-spm-anchor-id="a313x.search_index.0.i7.de003a81wWhzDh" class="selected"></path></svg>